<svg width="384" height="437" viewBox="0 0 384 437" fill="none" xmlns="http://www.w3.org/2000/svg">
<path d="M267.553 372.462C273.314 382.44 269.895 395.199 259.917 400.959L202.421 434.153C195.965 437.883 188.01 437.879 181.555 434.153L124.101 400.961C114.127 395.199 110.71 382.443 116.469 372.467L155.992 304.011C158.485 299.693 163.765 297.936 168.557 299.316C175.977 301.453 183.817 302.598 191.924 302.598C200.08 302.598 207.965 301.44 215.424 299.278C220.221 297.888 225.51 299.643 228.007 303.967L267.553 372.462Z" fill="black"/>
<path d="M363.139 230.049C374.66 230.049 384 239.389 384 250.91V317.301C384 324.756 380.023 331.644 373.566 335.37L316.094 368.531C312.664 370.51 308.906 371.405 305.217 371.322C298.174 371.163 291.381 367.439 287.601 360.893L248.039 292.369C245.544 288.047 246.665 282.593 250.266 279.138C261.577 268.285 269.868 254.307 273.749 238.592C274.945 233.748 279.108 230.048 284.098 230.048L363.139 230.049Z" fill="black"/>
<path d="M99.748 230.048C104.738 230.048 108.901 233.747 110.097 238.592C110.815 241.499 111.684 244.347 112.694 247.126C117.111 259.268 124.371 270.307 133.683 279.229C137.291 282.686 138.419 288.15 135.92 292.477L96.4235 360.888C92.4632 367.747 85.1951 371.507 77.7973 371.315C74.4344 371.228 71.0449 370.324 67.9269 368.524L10.4307 335.328C3.97458 331.601 -0.00183897 324.711 6.38029e-07 317.257L0.016706 250.904C0.0196867 239.385 9.35877 230.048 20.878 230.048H99.748Z" fill="black"/>
<path d="M191.923 154.484C227.179 154.484 255.759 183.064 255.759 218.319C255.759 253.575 227.179 282.155 191.923 282.155C156.668 282.155 128.087 253.575 128.087 218.319C128.087 183.064 156.668 154.484 191.923 154.484Z" fill="black"/>
<path d="M67.9269 68.4265C77.9045 62.6659 90.6628 66.0846 96.4235 76.0622L135.804 144.271C138.299 148.592 137.178 154.047 133.578 157.501C126.959 163.853 121.374 171.275 117.102 179.488C114.135 185.193 111.802 191.28 110.194 197.657C110.139 197.877 110.084 198.099 110.03 198.32C108.847 203.183 104.677 206.902 99.6727 206.902H20.878C9.35884 206.902 0.0197357 197.565 0.016706 186.046L6.51045e-07 119.694C-0.00185763 112.239 3.97454 105.349 10.4307 101.622L67.9269 68.4265Z" fill="black"/>
<path d="M306.222 65.6302C309.584 65.717 312.973 66.6199 316.091 68.419L373.563 101.58C380.02 105.306 383.998 112.194 383.998 119.649V186.04C383.998 197.562 374.658 206.902 363.136 206.902H279.63C277.226 206.902 275.207 205.122 274.767 202.758C271.563 185.596 262.866 169.687 250.359 157.603C246.775 154.141 245.661 148.694 248.152 144.379L287.598 76.0571C291.558 69.1988 298.825 65.4396 306.222 65.6302Z" fill="black"/>
<path d="M181.555 2.79761C188.01 -0.931458 195.965 -0.932663 202.421 2.79476L259.917 35.9903C269.895 41.751 273.314 54.5098 267.553 64.4877L228.162 132.714C225.662 137.045 220.361 138.798 215.56 137.399C212.549 136.521 209.488 135.812 206.397 135.277C201.62 134.45 196.772 134.039 191.924 134.039C183.768 134.039 175.881 135.198 168.421 137.36C163.625 138.75 158.335 136.995 155.838 132.67L116.469 64.4827C110.71 54.5068 114.127 41.7506 124.101 35.9883L181.555 2.79761Z" fill="black"/>
</svg>
