<svg width="393" height="449" viewBox="0 0 393 449" fill="none" xmlns="http://www.w3.org/2000/svg">
<path d="M183.544 321.353C191.647 326.037 201.631 326.037 209.734 321.353L210.098 321.143C219.668 315.609 231.913 318.89 237.434 328.467L271.76 388L271.98 388.394C276.49 396.695 273.589 407.13 265.369 411.883L205.219 446.658C199.815 449.782 193.157 449.781 187.755 446.655L127.648 411.885C119.3 407.056 116.44 396.365 121.261 388.005L155.652 328.356C161.174 318.779 173.418 315.499 182.989 321.032L183.544 321.353Z" fill="black"/>
<path d="M375.54 240.995C385.183 240.996 392.999 248.823 393 258.479V328.029L392.997 328.321C392.895 334.456 389.586 340.098 384.266 343.172L324.141 377.911C315.791 382.736 305.115 379.87 300.294 371.51L265.943 311.931C260.43 302.37 263.705 290.15 273.26 284.627L273.907 284.252L274.285 284.03C282.165 279.297 287.002 270.764 287.002 261.541V260.995C287.002 249.949 295.956 240.995 307.002 240.995L375.54 240.995Z" fill="black"/>
<path d="M86.2766 240.995C97.3223 240.995 106.277 249.95 106.277 260.996V261.541C106.277 270.91 111.268 279.568 119.371 284.252L119.827 284.516C129.382 290.04 132.656 302.259 127.143 311.82L92.7313 371.505C87.9853 379.736 77.564 382.641 69.2742 378.125L68.8812 377.904L8.73025 343.129C3.32701 340.005 -0.0009661 334.232 0.000426739 327.984L0.0179034 258.474C0.0204323 248.821 7.8367 240.996 17.4775 240.995H86.2766Z" fill="black"/>
<path d="M187.946 158.557C193.301 155.579 199.834 155.626 205.151 158.701L249.101 184.109C254.503 187.232 257.83 193.004 257.831 199.25V250.067L257.828 250.36C257.727 256.396 254.522 261.955 249.352 265.06L249.101 265.208L205.151 290.617C204.308 291.104 203.435 291.515 202.542 291.85C202.209 291.975 201.997 291.961 201.857 291.93C201.696 291.894 201.468 291.796 201.205 291.556C200.644 291.042 200.132 290.05 200.132 288.836V226.299C200.132 221.37 197.371 216.857 192.986 214.617L143.092 189.141C141.978 188.572 141.33 187.627 141.148 186.884C141.063 186.538 141.09 186.299 141.135 186.155C141.172 186.034 141.26 185.842 141.554 185.607C142.238 185.058 142.969 184.556 143.742 184.109L187.692 158.701L187.946 158.557Z" fill="black"/>
<path d="M68.8807 71.096C77.2315 66.2682 87.9095 69.1332 92.7309 77.4951L127.092 137.091C132.605 146.652 129.331 158.871 119.776 164.395L119.371 164.629C111.268 169.314 106.277 177.971 106.277 187.34V188.005C106.277 199.051 97.3223 208.005 86.2766 208.005H17.4771C7.83636 208.005 0.0201206 200.18 0.0174772 190.526L4.78102e-07 121.016C-0.00145638 114.769 3.32665 108.995 8.72982 105.871L68.8807 71.096Z" fill="black"/>
<path d="M300.295 77.4904C305.115 69.13 315.791 66.2641 324.141 71.0887L384.266 105.828C389.67 108.95 393 114.724 393 120.971V190.522L392.994 190.973C392.755 200.42 385.032 208.005 375.54 208.005H307.002C295.956 208.005 287.002 199.051 287.002 188.005V187.34L286.998 186.901C286.845 177.701 281.883 169.24 273.907 164.629L273.31 164.284C263.756 158.76 260.482 146.541 265.994 136.979L300.295 77.4904Z" fill="black"/>
<path d="M187.755 2.34465C193.157 -0.780583 199.815 -0.781662 205.219 2.34209L265.369 37.1173L265.757 37.3478C273.68 42.2004 276.419 52.4371 271.98 60.6065L271.76 61L237.486 120.444C231.964 130.021 219.719 133.302 210.149 127.768L209.734 127.528C201.631 122.844 191.647 122.844 183.544 127.528L182.937 127.88C173.367 133.412 161.123 130.131 155.601 120.555L121.261 60.9949C116.44 52.6345 119.3 41.9438 127.648 37.1147L187.755 2.34465Z" fill="black"/>
</svg>
