<svg width="856" height="974" viewBox="0 0 856 974" fill="none" xmlns="http://www.w3.org/2000/svg">
<path d="M437.104 600.89C453.713 600.89 469.06 609.751 477.364 624.135L596.242 830.036C609.08 852.272 601.461 880.705 579.226 893.543L451.095 967.519C436.707 975.826 418.98 975.823 404.595 967.513L276.557 893.547C254.328 880.706 246.715 852.278 259.55 830.047L378.434 624.135C386.738 609.751 402.086 600.89 418.695 600.89H437.104Z" fill="black"/>
<path d="M809.257 512.666C834.932 512.666 855.747 533.481 855.747 559.156V707.108C855.747 723.722 846.882 739.073 832.492 747.376L704.416 821.277C682.181 834.107 653.755 826.486 640.92 804.255L522.037 598.343C513.733 583.959 513.733 566.236 522.037 551.852L531.241 535.911C539.546 521.527 554.893 512.666 571.502 512.666H809.257Z" fill="black"/>
<path d="M284.295 512.666C300.904 512.666 316.251 521.527 324.556 535.911L333.76 551.853C342.064 566.237 342.064 583.959 333.76 598.343L214.883 804.244C202.045 826.48 173.613 834.098 151.377 821.261L23.2461 747.284C8.85857 738.977 -0.00312732 723.625 0.000978053 707.012L0.0380874 559.144C0.0446093 533.473 20.8574 512.666 46.5283 512.666H284.295Z" fill="black"/>
<path d="M151.376 152.487C173.612 139.649 202.044 147.267 214.882 169.503L333.76 375.405C342.064 389.789 342.064 407.511 333.76 421.894L324.556 437.837C316.251 452.221 300.903 461.082 284.294 461.082L46.5273 461.081C20.8564 461.081 0.0436328 440.274 0.0371109 414.603L1.4901e-06 266.736C-0.00419545 250.123 8.85752 234.769 23.2451 226.463L151.376 152.487Z" fill="black"/>
<path d="M640.921 169.493C653.756 147.261 682.182 139.641 704.417 152.471L832.493 226.372C846.883 234.675 855.748 250.025 855.748 266.639V414.592C855.748 440.267 834.933 461.082 809.258 461.082H571.503C554.894 461.082 539.547 452.221 531.242 437.837L522.038 421.894C513.734 407.51 513.734 389.789 522.038 375.405L640.921 169.493Z" fill="black"/>
<path d="M404.595 6.23426C418.98 -2.07597 436.707 -2.07825 451.095 6.2284L579.226 80.205C601.461 93.0428 609.08 121.475 596.242 143.711L477.364 349.613C469.06 363.997 453.712 372.857 437.104 372.857H418.695C402.086 372.857 386.738 363.997 378.434 349.613L259.55 143.701C246.714 121.469 254.328 93.0412 276.557 80.2001L404.595 6.23426Z" fill="black"/>
<path d="M486.284 487.213C486.284 519.564 460.058 545.79 427.707 545.79C395.355 545.79 369.129 519.564 369.129 487.213C369.129 454.861 395.355 428.635 427.707 428.635C460.058 428.635 486.284 454.861 486.284 487.213Z" fill="black"/>
</svg>
