<svg width="917" height="1000" viewBox="0 0 917 1000" fill="none" xmlns="http://www.w3.org/2000/svg">
<path d="M750.037 277.883C730.403 223.946 683.482 184.579 626.95 174.612L413.738 137.021C357.205 127.053 299.649 148 262.749 191.97L123.585 357.803C86.6865 401.773 76.0501 462.087 95.6836 516.024L169.731 719.448C189.365 773.385 236.286 812.751 292.818 822.719L506.03 860.31C562.563 870.277 620.119 849.331 657.019 805.36L796.183 639.528C833.082 595.558 843.718 535.244 824.084 481.307L750.037 277.883ZM850.73 471.61L851.264 473.099C873.63 536.174 860.976 606.427 817.904 657.753L678.74 823.584C635.329 875.314 567.615 899.957 501.106 888.231L287.895 850.641C221.905 839.006 167.049 793.322 143.634 730.629L143.086 729.145L69.0385 525.721C45.9402 462.265 58.4532 391.307 101.864 339.578L241.028 173.746C284.439 122.016 352.153 97.3733 418.662 109.099L631.873 146.69C698.383 158.416 753.583 204.73 776.682 268.186L850.73 471.61Z" fill="white"/>
<path d="M888.411 344.507C888.411 287.108 857.786 234.069 808.072 205.37L538.723 49.8766C489.008 21.177 427.758 21.177 378.044 49.8766L108.694 205.37C58.9806 234.069 28.3552 287.108 28.3551 344.507V655.493C28.3552 712.892 58.9806 765.931 108.694 794.63L378.044 950.123C427.758 978.823 489.008 978.823 538.723 950.123L808.072 794.63C857.786 765.931 888.411 712.892 888.411 655.493V344.507ZM916.766 655.493L916.759 657.074C916.202 723.994 880.28 785.684 822.249 819.185L552.9 974.677C494.87 1008.18 423.479 1008.44 365.24 975.462L363.866 974.677L94.517 819.185C36.4868 785.684 0.565288 723.995 0.00738414 657.075L0 655.493V344.507C0.000114131 276.979 36.0298 214.58 94.517 180.815L363.866 25.3232C422.354 -8.44105 494.413 -8.44105 552.9 25.3232L822.249 180.815C880.737 214.58 916.766 276.979 916.766 344.507V655.493Z" fill="white"/>
<path d="M818.495 302.4C808.526 245.873 769.155 198.958 715.212 179.326L467.36 89.1242C413.417 69.4926 353.097 80.1275 309.122 117.023L107.072 286.547C63.0969 323.442 42.1479 380.993 52.116 437.52L97.9174 697.245C107.886 753.772 147.257 800.688 201.2 820.319L449.052 910.521C502.995 930.153 563.315 919.518 607.29 882.623L809.341 713.099C853.315 676.203 874.264 618.653 864.296 562.126L818.495 302.4ZM892.22 557.203L892.489 558.762C903.561 624.762 878.898 691.751 827.567 734.818L625.516 904.341C573.781 947.748 502.816 960.259 439.354 937.163L191.502 846.962C128.535 824.047 82.4452 769.532 70.2742 703.726L69.9931 702.169L24.1917 442.443C12.5561 376.46 36.7269 309.291 87.6372 265.849L88.8451 264.827L290.896 95.3042C342.631 51.8978 413.596 39.3861 477.058 62.4821L724.91 152.683C788.373 175.779 834.691 230.974 846.419 297.477L892.22 557.203Z" fill="white"/>
<path d="M684.113 274.127C655.41 224.418 602.366 193.797 544.961 193.797L375.719 193.796C318.314 193.796 265.27 224.418 236.567 274.127L151.946 420.681C123.244 470.39 123.244 531.633 151.946 581.342L236.567 727.896C265.27 777.605 318.314 808.226 375.719 808.226L544.961 808.227C602.366 808.227 655.41 777.605 684.113 727.896L768.734 581.342C797.436 531.633 797.436 470.39 768.734 420.681L684.113 274.127ZM793.29 406.504L794.075 407.877C827.056 466.11 826.794 537.495 793.29 595.519L708.669 742.071L707.872 743.438C674.193 800.66 612.943 836.019 546.543 836.572L544.961 836.579L375.719 836.579C308.712 836.579 246.754 801.114 212.807 743.438L212.011 742.072L127.39 595.518C93.8862 537.494 93.624 466.11 126.604 407.877L127.39 406.504L212.011 259.952C245.779 201.47 308.184 165.444 375.719 165.444L544.961 165.444C612.496 165.444 674.901 201.47 708.669 259.951L793.29 406.504Z" fill="white"/>
<path d="M625.251 282.282C588.352 238.312 530.796 217.366 474.263 227.333L354.132 248.513C297.599 258.48 250.679 297.847 231.045 351.785L189.324 466.4C169.691 520.338 180.326 580.651 217.225 624.621L295.635 718.057C332.534 762.027 390.091 782.973 446.624 773.006L566.754 751.826C623.287 741.859 670.208 702.492 689.841 648.555L731.562 533.939C751.196 480.001 740.56 419.688 703.661 375.718L625.251 282.282ZM725.382 357.493L726.394 358.71C768.986 410.332 781.126 480.676 758.208 543.636L716.486 658.251C693.388 721.707 638.187 768.021 571.678 779.748L451.548 800.928C385.558 812.563 318.383 788.394 274.937 737.489L273.914 736.282L195.504 642.846C152.093 591.116 139.58 520.159 162.679 456.703L204.4 342.088C227.499 278.632 282.699 232.318 349.209 220.592L469.339 199.411C535.848 187.685 603.562 212.328 646.973 264.058L725.382 357.493Z" fill="white"/>
</svg>
