<svg width="3445" height="826" viewBox="0 0 3445 826" fill="none" xmlns="http://www.w3.org/2000/svg">
<path d="M613.069 791.245C603.255 791.245 595.711 786.558 591.39 779.746H591.023V815.562H578.426V713.022H590.511V724.082H590.877C595.345 716.831 603.255 711.851 613.582 711.851C630.94 711.851 643.758 725.181 643.758 747.959V755.063C643.758 777.549 631.16 791.245 613.069 791.245ZM611.824 780.259C623.323 780.259 631.087 771.03 631.087 754.111V748.398C631.087 732.212 623.909 722.69 611.458 722.69C598.641 722.69 590.804 733.018 590.804 748.325V754.111C590.804 769.858 598.714 780.259 611.824 780.259ZM693.196 711.777C714.729 711.777 726.155 727.378 726.155 747.959V754.844C726.155 775.718 714.803 791.245 693.196 791.245C671.59 791.245 660.091 775.718 660.091 754.844V747.959C660.091 727.378 671.663 711.777 693.196 711.777ZM693.196 722.544C679.939 722.544 672.688 732.651 672.688 748.398V754.404C672.688 770.078 679.939 780.332 693.196 780.332C706.38 780.332 713.558 770.151 713.558 754.404V748.398C713.558 732.651 706.38 722.544 693.196 722.544ZM745.638 790V713.022H758.235V722.471H758.602C760.872 717.856 766.658 711.851 777.571 711.851C779.183 711.851 780.794 711.997 782.332 712.217V723.716C781.014 723.496 778.523 723.423 776.18 723.423C762.557 723.423 758.309 731.919 758.309 742.319V790H745.638ZM806.282 713.022V693.833H818.807V713.022H834.041V723.569H818.807V768.613C818.807 777.842 821.883 780.186 831.331 780.186C832.576 780.186 833.528 780.186 834.554 780.039V790.146C833.455 790.366 830.818 790.659 828.182 790.659C809.944 790.659 806.209 783.628 806.209 768.467V723.569H795.882V713.022H806.282ZM872.566 791.245C857.698 791.245 847.444 782.017 847.444 767.881C847.444 754.404 856.819 745.908 874.471 745.835H894.759V737.998C894.759 727.891 888.899 722.324 878.499 722.324C868.611 722.324 862.972 727.378 862.239 735.068H850.374C851.18 721.592 860.335 711.777 878.938 711.777C895.345 711.777 907.283 720.713 907.283 736.899V790H895.198V780.405H894.832C890.95 786.631 883.919 791.245 872.566 791.245ZM875.936 780.771C886.702 780.771 894.759 774.033 894.759 764.438V755.503H875.423C864.876 755.503 860.335 760.483 860.335 767.441C860.335 776.523 867.879 780.771 875.936 780.771ZM964.705 791.245C953.719 791.245 946.248 786.338 941.707 778.428H941.341V790H929.256V684.751H941.854V723.569H942.22C946.175 716.904 955.11 711.851 964.852 711.851C982.796 711.851 995.394 724.595 995.394 747.739V755.21C995.394 777.476 983.235 791.245 964.705 791.245ZM963.167 780.259C974.739 780.259 982.723 771.03 982.723 754.551V748.472C982.723 731.846 974.666 722.837 963.167 722.837C949.764 722.837 941.707 731.772 941.707 748.472V754.404C941.707 771.104 949.69 780.259 963.167 780.259ZM1015.24 790V684.751H1027.77V790H1015.24ZM1079.99 791.245C1059.92 791.245 1047.69 777.109 1047.69 755.21V746.567C1047.69 726.279 1059.19 711.777 1079.4 711.777C1099.54 711.777 1111.12 726.279 1111.12 747.446V754.624H1060.29V756.016C1060.29 770.664 1067.76 780.698 1080.28 780.698C1089.22 780.698 1095.08 776.23 1097.57 769.053H1110.09C1107.16 781.797 1096.98 791.245 1079.99 791.245ZM1060.29 744.443H1098.52V744.224C1098.52 731.992 1090.97 722.324 1079.48 722.324C1067.76 722.324 1060.29 732.065 1060.29 744.224V744.443ZM1159.16 694.492C1159.16 689.951 1162.75 686.436 1167.22 686.436C1171.69 686.436 1175.35 689.951 1175.35 694.492C1175.35 698.96 1171.69 702.476 1167.22 702.476C1162.75 702.476 1159.16 698.96 1159.16 694.492ZM1160.92 790V713.022H1173.52V790H1160.92ZM1196.81 790V713.022H1209.33V723.203H1209.7C1212.56 718.296 1219.66 711.777 1232.19 711.777C1248.01 711.777 1259.8 721.885 1259.8 740.635V790H1247.2V742.759C1247.2 729.795 1239.58 723.203 1228.38 723.203C1215.12 723.203 1209.41 732.578 1209.41 743.125V790H1196.81ZM1285.73 713.022V693.833H1298.25V713.022H1313.48V723.569H1298.25V768.613C1298.25 777.842 1301.33 780.186 1310.77 780.186C1312.02 780.186 1312.97 780.186 1314 780.039V790.146C1312.9 790.366 1310.26 790.659 1307.62 790.659C1289.39 790.659 1285.65 783.628 1285.65 768.467V723.569H1275.33V713.022H1285.73ZM1360.51 791.245C1340.44 791.245 1328.21 777.109 1328.21 755.21V746.567C1328.21 726.279 1339.71 711.777 1359.92 711.777C1380.06 711.777 1391.63 726.279 1391.63 747.446V754.624H1340.8V756.016C1340.8 770.664 1348.27 780.698 1360.8 780.698C1369.73 780.698 1375.59 776.23 1378.08 769.053H1390.61C1387.68 781.797 1377.5 791.245 1360.51 791.245ZM1340.8 744.443H1379.04V744.224C1379.04 731.992 1371.49 722.324 1359.99 722.324C1348.27 722.324 1340.8 732.065 1340.8 744.224V744.443ZM1410.68 790V713.022H1423.27V722.471H1423.64C1425.91 717.856 1431.7 711.851 1442.61 711.851C1444.22 711.851 1445.83 711.997 1447.37 712.217V723.716C1446.05 723.496 1443.56 723.423 1441.22 723.423C1427.6 723.423 1423.35 731.919 1423.35 742.319V790H1410.68ZM1471.32 790V723.569H1460.92V713.022H1471.32V705.332C1471.32 690.61 1478.72 683.799 1494.54 683.799C1497.1 683.799 1498.86 684.019 1500.18 684.238V694.565C1499.08 694.419 1498.13 694.272 1496.22 694.272C1487.87 694.272 1483.85 696.982 1483.85 706.357V713.022H1499.01V723.569H1483.92V790H1471.32ZM1536.73 791.245C1521.86 791.245 1511.6 782.017 1511.6 767.881C1511.6 754.404 1520.98 745.908 1538.63 745.835H1558.92V737.998C1558.92 727.891 1553.06 722.324 1542.66 722.324C1532.77 722.324 1527.13 727.378 1526.4 735.068H1514.53C1515.34 721.592 1524.5 711.777 1543.1 711.777C1559.5 711.777 1571.44 720.713 1571.44 736.899V790H1559.36V780.405H1558.99C1555.11 786.631 1548.08 791.245 1536.73 791.245ZM1540.1 780.771C1550.86 780.771 1558.92 774.033 1558.92 764.438V755.503H1539.58C1529.04 755.503 1524.5 760.483 1524.5 767.441C1524.5 776.523 1532.04 780.771 1540.1 780.771ZM1590.12 754.99V747.373C1590.12 726.646 1601.99 711.777 1622.05 711.777C1639.85 711.777 1650.69 723.569 1651.35 735.361H1638.97C1637.29 728.843 1631.21 722.91 1622.86 722.91C1610.12 722.91 1602.72 732.358 1602.72 747.886V755.063C1602.72 770.151 1610.63 780.112 1622.93 780.112C1632.53 780.112 1638.17 774.985 1639.56 768.833H1651.94C1649.37 782.017 1639.71 791.245 1622.05 791.245C1601.62 791.245 1590.12 775.498 1590.12 754.99ZM1698.74 791.245C1678.67 791.245 1666.44 777.109 1666.44 755.21V746.567C1666.44 726.279 1677.94 711.777 1698.15 711.777C1718.29 711.777 1729.87 726.279 1729.87 747.446V754.624H1679.04V756.016C1679.04 770.664 1686.51 780.698 1699.03 780.698C1707.97 780.698 1713.83 776.23 1716.32 769.053H1728.84C1725.91 781.797 1715.73 791.245 1698.74 791.245ZM1679.04 744.443H1717.27V744.224C1717.27 731.992 1709.72 722.324 1698.23 722.324C1686.51 722.324 1679.04 732.065 1679.04 744.224V744.443ZM1745.76 735.068C1745.76 718.809 1759.46 711.777 1774.25 711.777C1792.34 711.777 1801.64 722.104 1801.64 734.849H1789.92C1789.49 728.989 1785.82 722.104 1773.81 722.104C1764.66 722.104 1758.06 726.133 1758.06 733.75C1758.06 742.393 1768.25 744.224 1777.03 745.835C1791.46 748.398 1803.62 752.28 1803.62 767.295C1803.62 782.603 1791.24 791.245 1773.15 791.245C1756.23 791.245 1744.44 783.115 1744.44 769.272H1756.75C1757.84 776.304 1763.85 780.918 1774.1 780.918C1785.9 780.918 1791.24 775.352 1791.24 768.833C1791.24 760.117 1782.67 758.433 1771.91 756.309C1757.55 753.379 1745.76 748.984 1745.76 735.068ZM1854.01 750.376C1854.01 745.615 1857.89 741.733 1862.58 741.733C1867.34 741.733 1871.22 745.615 1871.22 750.376C1871.22 755.063 1867.34 758.945 1862.58 758.945C1857.89 758.945 1854.01 755.063 1854.01 750.376ZM1930.84 790V723.569H1920.44V713.022H1930.84V705.332C1930.84 690.61 1938.24 683.799 1954.06 683.799C1956.62 683.799 1958.38 684.019 1959.7 684.238V694.565C1958.6 694.419 1957.65 694.272 1955.75 694.272C1947.4 694.272 1943.37 696.982 1943.37 706.357V713.022H1958.53V723.569H1943.44V790H1930.84ZM1978.23 790V684.751H1990.75V790H1978.23ZM2042.98 791.245C2022.91 791.245 2010.68 777.109 2010.68 755.21V746.567C2010.68 726.279 2022.18 711.777 2042.39 711.777C2062.53 711.777 2074.1 726.279 2074.1 747.446V754.624H2023.27V756.016C2023.27 770.664 2030.75 780.698 2043.27 780.698C2052.21 780.698 2058.06 776.23 2060.55 769.053H2073.08C2070.15 781.797 2059.97 791.245 2042.98 791.245ZM2023.27 744.443H2061.51V744.224C2061.51 731.992 2053.96 722.324 2042.46 722.324C2030.75 722.324 2023.27 732.065 2023.27 744.224V744.443ZM2137.24 790L2117.61 760.923H2117.54L2098.05 790H2083.77L2110.21 751.475L2084.43 713.022H2099.52L2118.34 742.246H2118.42L2137.24 713.022H2151.67L2125.74 751.475L2152.25 790H2137.24ZM2164.49 694.492C2164.49 689.951 2168.07 686.436 2172.54 686.436C2177.01 686.436 2180.67 689.951 2180.67 694.492C2180.67 698.96 2177.01 702.476 2172.54 702.476C2168.07 702.476 2164.49 698.96 2164.49 694.492ZM2166.24 790V713.022H2178.84V790H2166.24ZM2237.8 791.245C2226.81 791.245 2219.34 786.338 2214.8 778.428H2214.44V790H2202.35V684.751H2214.95V723.569H2215.32C2219.27 716.904 2228.21 711.851 2237.95 711.851C2255.89 711.851 2268.49 724.595 2268.49 747.739V755.21C2268.49 777.476 2256.33 791.245 2237.8 791.245ZM2236.26 780.259C2247.83 780.259 2255.82 771.03 2255.82 754.551V748.472C2255.82 731.846 2247.76 722.837 2236.26 722.837C2222.86 722.837 2214.8 731.772 2214.8 748.472V754.404C2214.8 771.104 2222.79 780.259 2236.26 780.259ZM2288.34 790V684.751H2300.86V790H2288.34ZM2353.08 791.245C2333.02 791.245 2320.78 777.109 2320.78 755.21V746.567C2320.78 726.279 2332.28 711.777 2352.5 711.777C2372.64 711.777 2384.21 726.279 2384.21 747.446V754.624H2333.38V756.016C2333.38 770.664 2340.85 780.698 2353.38 780.698C2362.31 780.698 2368.17 776.23 2370.66 769.053H2383.19C2380.26 781.797 2370.08 791.245 2353.08 791.245ZM2333.38 744.443H2371.61V744.224C2371.61 731.992 2364.07 722.324 2352.57 722.324C2340.85 722.324 2333.38 732.065 2333.38 744.224V744.443ZM2454.01 791.245C2439.14 791.245 2428.89 782.017 2428.89 767.881C2428.89 754.404 2438.26 745.908 2455.92 745.835H2476.2V737.998C2476.2 727.891 2470.34 722.324 2459.94 722.324C2450.06 722.324 2444.42 727.378 2443.68 735.068H2431.82C2432.62 721.592 2441.78 711.777 2460.38 711.777C2476.79 711.777 2488.73 720.713 2488.73 736.899V790H2476.64V780.405H2476.28C2472.4 786.631 2465.36 791.245 2454.01 791.245ZM2457.38 780.771C2468.15 780.771 2476.2 774.033 2476.2 764.438V755.503H2456.87C2446.32 755.503 2441.78 760.483 2441.78 767.441C2441.78 776.523 2449.32 780.771 2457.38 780.771ZM2507.41 754.99V747.373C2507.41 726.646 2519.27 711.777 2539.34 711.777C2557.14 711.777 2567.98 723.569 2568.64 735.361H2556.26C2554.57 728.843 2548.49 722.91 2540.14 722.91C2527.4 722.91 2520 732.358 2520 747.886V755.063C2520 770.151 2527.91 780.112 2540.22 780.112C2549.81 780.112 2555.45 774.985 2556.84 768.833H2569.22C2566.66 782.017 2556.99 791.245 2539.34 791.245C2518.9 791.245 2507.41 775.498 2507.41 754.99ZM2583.72 754.99V747.373C2583.72 726.646 2595.59 711.777 2615.66 711.777C2633.46 711.777 2644.29 723.569 2644.95 735.361H2632.58C2630.89 728.843 2624.81 722.91 2616.46 722.91C2603.72 722.91 2596.32 732.358 2596.32 747.886V755.063C2596.32 770.151 2604.23 780.112 2616.54 780.112C2626.13 780.112 2631.77 774.985 2633.16 768.833H2645.54C2642.98 782.017 2633.31 791.245 2615.66 791.245C2595.22 791.245 2583.72 775.498 2583.72 754.99ZM2692.34 791.245C2672.27 791.245 2660.04 777.109 2660.04 755.21V746.567C2660.04 726.279 2671.54 711.777 2691.76 711.777C2711.9 711.777 2723.47 726.279 2723.47 747.446V754.624H2672.64V756.016C2672.64 770.664 2680.11 780.698 2692.63 780.698C2701.57 780.698 2707.43 776.23 2709.92 769.053H2722.44C2719.51 781.797 2709.33 791.245 2692.34 791.245ZM2672.64 744.443H2710.87V744.224C2710.87 731.992 2703.33 722.324 2691.83 722.324C2680.11 722.324 2672.64 732.065 2672.64 744.224V744.443ZM2739.36 735.068C2739.36 718.809 2753.06 711.777 2767.85 711.777C2785.95 711.777 2795.25 722.104 2795.25 734.849H2783.53C2783.09 728.989 2779.43 722.104 2767.42 722.104C2758.26 722.104 2751.67 726.133 2751.67 733.75C2751.67 742.393 2761.85 744.224 2770.64 745.835C2785.07 748.398 2797.22 752.28 2797.22 767.295C2797.22 782.603 2784.85 791.245 2766.76 791.245C2749.84 791.245 2738.04 783.115 2738.04 769.272H2750.35C2751.45 776.304 2757.45 780.918 2767.71 780.918C2779.5 780.918 2784.85 775.352 2784.85 768.833C2784.85 760.117 2776.28 758.433 2765.51 756.309C2751.16 753.379 2739.36 748.984 2739.36 735.068ZM2812.02 735.068C2812.02 718.809 2825.72 711.777 2840.51 711.777C2858.6 711.777 2867.9 722.104 2867.9 734.849H2856.18C2855.75 728.989 2852.08 722.104 2840.07 722.104C2830.92 722.104 2824.32 726.133 2824.32 733.75C2824.32 742.393 2834.5 744.224 2843.29 745.835C2857.72 748.398 2869.88 752.28 2869.88 767.295C2869.88 782.603 2857.5 791.245 2839.41 791.245C2822.49 791.245 2810.7 783.115 2810.7 769.272H2823.01C2824.1 776.304 2830.11 780.918 2840.36 780.918C2852.16 780.918 2857.5 775.352 2857.5 768.833C2857.5 760.117 2848.93 758.433 2838.17 756.309C2823.81 753.379 2812.02 748.984 2812.02 735.068Z" fill="black"/>
<path d="M575.451 215.258C647.229 215.258 685.314 267.26 685.314 335.863V358.812C685.314 428.393 647.473 480.15 575.451 480.15C503.43 480.15 465.1 428.393 465.1 358.812V335.863C465.1 267.26 503.674 215.258 575.451 215.258ZM575.451 251.146C531.262 251.146 507.092 284.838 507.092 337.328V357.348C507.092 409.594 531.262 443.773 575.451 443.773C619.396 443.773 643.322 409.838 643.322 357.348V337.328C643.322 284.838 619.396 251.146 575.451 251.146ZM866.467 480.15C833.752 480.15 808.605 464.525 794.201 441.82H792.98V561.205H750.988V219.408H791.271V256.273H792.492C807.385 232.104 833.752 215.502 868.176 215.502C926.037 215.502 968.762 259.936 968.762 335.863V359.545C968.762 434.496 926.77 480.15 866.467 480.15ZM862.316 443.529C900.646 443.529 926.525 412.768 926.525 356.371V337.328C926.525 283.373 902.6 251.635 861.096 251.635C818.371 251.635 792.248 286.059 792.248 337.084V356.371C792.248 408.861 818.615 443.529 862.316 443.529ZM1130.87 480.15C1063.98 480.15 1023.21 433.031 1023.21 360.033V331.225C1023.21 263.598 1061.54 215.258 1128.92 215.258C1196.06 215.258 1234.63 263.598 1234.63 334.154V358.08H1065.2V362.719C1065.2 411.547 1090.1 444.994 1131.85 444.994C1161.63 444.994 1181.16 430.102 1189.46 406.176H1231.21C1221.45 448.656 1187.51 480.15 1130.87 480.15ZM1065.2 324.145H1192.64V323.412C1192.64 282.641 1167.49 250.414 1129.16 250.414C1090.1 250.414 1065.2 282.885 1065.2 323.412V324.145ZM1298.11 476V219.408H1339.86V253.344H1341.08C1350.6 236.986 1374.28 215.258 1416.03 215.258C1468.76 215.258 1508.07 248.949 1508.07 311.449V476H1466.08V318.529C1466.08 275.316 1440.69 253.344 1403.33 253.344C1359.14 253.344 1340.1 284.594 1340.1 319.75V476H1298.11ZM1697.77 480.15C1661.14 480.15 1636.24 463.793 1621.11 437.426H1619.88V476H1579.6V125.17H1621.59V254.564H1622.81C1636 232.348 1665.78 215.502 1698.25 215.502C1758.07 215.502 1800.06 257.982 1800.06 335.131V360.033C1800.06 434.252 1759.53 480.15 1697.77 480.15ZM1692.64 443.529C1731.21 443.529 1757.82 412.768 1757.82 357.836V337.572C1757.82 282.152 1730.97 252.123 1692.64 252.123C1647.96 252.123 1621.11 281.908 1621.11 337.572V357.348C1621.11 413.012 1647.72 443.529 1692.64 443.529ZM1861.1 157.641C1861.1 142.504 1873.06 130.785 1887.95 130.785C1902.84 130.785 1915.05 142.504 1915.05 157.641C1915.05 172.533 1902.84 184.252 1887.95 184.252C1873.06 184.252 1861.1 172.533 1861.1 157.641ZM1866.96 476V219.408H1908.95V476H1866.96ZM1986.58 476V219.408H2028.33V253.344H2029.55C2039.07 236.986 2062.76 215.258 2104.5 215.258C2157.24 215.258 2196.54 248.949 2196.54 311.449V476H2154.55V318.529C2154.55 275.316 2129.16 253.344 2091.81 253.344C2047.62 253.344 2028.58 284.594 2028.58 319.75V476H1986.58ZM2359.63 215.502C2393.57 215.502 2420.42 232.348 2433.36 255.053H2434.58V125.17H2476.57V476H2436.29V437.426H2435.31C2420.91 463.793 2394.05 479.906 2359.63 479.906C2292.74 479.906 2257.09 430.834 2257.09 359.301V336.107C2257.09 266.283 2294.93 215.502 2359.63 215.502ZM2365.49 252.123C2327.4 252.123 2299.33 280.443 2299.33 337.572V357.836C2299.33 414.965 2327.4 443.285 2366.22 443.285C2409.19 443.285 2435.31 412.523 2435.31 358.08V337.572C2435.31 285.814 2408.7 252.123 2365.49 252.123ZM2548.6 157.641C2548.6 142.504 2560.56 130.785 2575.45 130.785C2590.34 130.785 2602.55 142.504 2602.55 157.641C2602.55 172.533 2590.34 184.252 2575.45 184.252C2560.56 184.252 2548.6 172.533 2548.6 157.641ZM2554.46 476V219.408H2596.45V476H2554.46ZM2674.08 476V219.408H2715.83V253.344H2717.05C2726.57 236.986 2750.26 215.258 2792 215.258C2844.74 215.258 2884.04 248.949 2884.04 311.449V476H2842.05V318.529C2842.05 275.316 2816.66 253.344 2779.31 253.344C2735.12 253.344 2716.08 284.594 2716.08 319.75V476H2674.08ZM3054.94 534.838C3095.47 534.838 3121.84 511.156 3121.84 470.873V433.031H3120.62C3110.36 455.248 3082.29 473.559 3047.38 473.559C2987.56 473.559 2944.84 431.566 2944.84 354.662V333.422C2944.84 257.982 2987.07 215.502 3047.38 215.502C3082.29 215.502 3110.12 233.812 3122.08 255.541H3123.3V219.408H3163.83V471.361C3163.83 537.035 3112.8 569.994 3054.7 569.994C2989.51 569.994 2956.31 537.768 2950.45 495.043H2993.42C2998.06 515.795 3019.79 534.838 3054.94 534.838ZM3055.43 251.635C3012.22 251.635 2986.83 282.396 2986.83 336.596V352.465C2986.83 405.688 3012.22 437.67 3055.43 437.67C3097.42 437.67 3121.84 405.443 3121.84 352.465V336.596C3121.84 284.594 3095.96 251.635 3055.43 251.635ZM3229.02 292.895C3229.02 238.695 3274.67 215.258 3323.99 215.258C3384.29 215.258 3415.29 249.682 3415.29 292.162H3376.23C3374.77 272.631 3362.56 249.682 3322.52 249.682C3292 249.682 3270.03 263.109 3270.03 288.5C3270.03 317.309 3303.97 323.412 3333.26 328.783C3381.36 337.328 3421.89 350.268 3421.89 400.316C3421.89 451.342 3380.63 480.15 3320.32 480.15C3263.93 480.15 3224.62 453.051 3224.62 406.908H3265.64C3269.3 430.346 3289.32 445.727 3323.5 445.727C3362.8 445.727 3380.63 427.172 3380.63 405.443C3380.63 376.391 3352.06 370.775 3316.17 363.695C3268.32 353.93 3229.02 339.281 3229.02 292.895Z" fill="black"/>
<path d="M183.544 442.353C191.647 447.037 201.631 447.037 209.734 442.353L210.098 442.143C219.668 436.609 231.913 439.89 237.434 449.467L271.76 509L271.98 509.394C276.49 517.695 273.589 528.13 265.369 532.883L205.219 567.658C199.815 570.782 193.157 570.781 187.755 567.655L127.648 532.885C119.3 528.056 116.44 517.366 121.261 509.005L155.652 449.356C161.174 439.779 173.418 436.499 182.989 442.032L183.544 442.353Z" fill="black"/>
<path d="M375.54 361.996C385.183 361.996 392.999 369.823 393 379.479V449.029L392.997 449.321C392.895 455.456 389.586 461.098 384.266 464.172L324.141 498.911C315.791 503.736 305.115 500.87 300.294 492.51L265.943 432.931C260.43 423.37 263.705 411.15 273.26 405.627L273.907 405.252L274.285 405.03C282.165 400.297 287.002 391.764 287.002 382.541V381.995C287.002 370.949 295.956 361.995 307.002 361.995L375.54 361.996Z" fill="black"/>
<path d="M86.2766 361.996C97.3223 361.996 106.277 370.95 106.277 381.996V382.541C106.277 391.91 111.268 400.568 119.371 405.252L119.827 405.516C129.382 411.04 132.656 423.259 127.144 432.82L92.7313 492.505C87.9853 500.736 77.564 503.641 69.2742 499.125L68.8812 498.904L8.73025 464.129C3.32701 461.005 -0.0009661 455.232 0.000426739 448.984L0.0179034 379.474C0.0204323 369.821 7.8367 361.996 17.4775 361.996H86.2766Z" fill="black"/>
<path d="M187.946 279.557C193.301 276.579 199.834 276.626 205.151 279.701L249.101 305.109C254.503 308.232 257.83 314.004 257.831 320.25V371.067L257.828 371.36C257.727 377.396 254.522 382.955 249.352 386.06L249.101 386.208L205.151 411.617C204.308 412.104 203.435 412.515 202.542 412.85C202.209 412.975 201.997 412.961 201.857 412.93C201.696 412.894 201.468 412.796 201.205 412.556C200.644 412.042 200.132 411.05 200.132 409.836V347.299C200.132 342.37 197.371 337.857 192.986 335.617L143.092 310.141C141.978 309.572 141.33 308.627 141.148 307.884C141.063 307.538 141.09 307.299 141.135 307.155C141.172 307.034 141.26 306.842 141.554 306.607C142.238 306.058 142.969 305.556 143.742 305.109L187.692 279.701L187.946 279.557Z" fill="black"/>
<path d="M68.8807 192.096C77.2315 187.268 87.9095 190.133 92.7309 198.495L127.092 258.091C132.605 267.652 129.331 279.871 119.776 285.395L119.371 285.629C111.268 290.314 106.277 298.971 106.277 308.34V309.005C106.277 320.051 97.3223 329.005 86.2766 329.005H17.4771C7.83636 329.005 0.0201206 321.18 0.0174772 311.526L4.78102e-07 242.016C-0.00145638 235.769 3.32665 229.995 8.72982 226.871L68.8807 192.096Z" fill="black"/>
<path d="M300.295 198.49C305.115 190.13 315.791 187.264 324.141 192.089L384.266 226.828C389.67 229.95 393 235.724 393 241.971V311.522L392.994 311.973C392.755 321.42 385.032 329.005 375.54 329.005H307.002C295.956 329.005 287.002 320.051 287.002 309.005V308.34L286.998 307.901C286.845 298.701 281.883 290.24 273.907 285.629L273.31 285.284C263.756 279.76 260.482 267.541 265.994 257.979L300.295 198.49Z" fill="black"/>
<path d="M187.755 123.345C193.157 120.219 199.815 120.218 205.219 123.342L265.369 158.117L265.756 158.348C273.68 163.2 276.419 173.437 271.98 181.606L271.76 182L237.486 241.444C231.964 251.021 219.719 254.302 210.149 248.768L209.734 248.528C201.631 243.844 191.647 243.844 183.544 248.528L182.937 248.88C173.367 254.412 161.123 251.131 155.601 241.555L121.261 181.995C116.44 173.634 119.3 162.944 127.648 158.115L187.755 123.345Z" fill="black"/>
</svg>
