<svg width="3435" height="826" viewBox="0 0 3435 826" fill="none" xmlns="http://www.w3.org/2000/svg">
<path d="M603.069 791.245C593.255 791.245 585.711 786.558 581.39 779.746H581.023V815.562H568.426V713.022H580.511V724.082H580.877C585.345 716.831 593.255 711.851 603.582 711.851C620.94 711.851 633.758 725.181 633.758 747.959V755.063C633.758 777.549 621.16 791.245 603.069 791.245ZM601.824 780.259C613.323 780.259 621.087 771.03 621.087 754.111V748.398C621.087 732.212 613.909 722.69 601.458 722.69C588.641 722.69 580.804 733.018 580.804 748.325V754.111C580.804 769.858 588.714 780.259 601.824 780.259ZM683.196 711.777C704.729 711.777 716.155 727.378 716.155 747.959V754.844C716.155 775.718 704.803 791.245 683.196 791.245C661.59 791.245 650.091 775.718 650.091 754.844V747.959C650.091 727.378 661.663 711.777 683.196 711.777ZM683.196 722.544C669.939 722.544 662.688 732.651 662.688 748.398V754.404C662.688 770.078 669.939 780.332 683.196 780.332C696.38 780.332 703.558 770.151 703.558 754.404V748.398C703.558 732.651 696.38 722.544 683.196 722.544ZM735.638 790V713.022H748.235V722.471H748.602C750.872 717.856 756.658 711.851 767.571 711.851C769.183 711.851 770.794 711.997 772.332 712.217V723.716C771.014 723.496 768.523 723.423 766.18 723.423C752.557 723.423 748.309 731.919 748.309 742.319V790H735.638ZM796.282 713.022V693.833H808.807V713.022H824.041V723.569H808.807V768.613C808.807 777.842 811.883 780.186 821.331 780.186C822.576 780.186 823.528 780.186 824.554 780.039V790.146C823.455 790.366 820.818 790.659 818.182 790.659C799.944 790.659 796.209 783.628 796.209 768.467V723.569H785.882V713.022H796.282ZM862.566 791.245C847.698 791.245 837.444 782.017 837.444 767.881C837.444 754.404 846.819 745.908 864.471 745.835H884.759V737.998C884.759 727.891 878.899 722.324 868.499 722.324C858.611 722.324 852.972 727.378 852.239 735.068H840.374C841.18 721.592 850.335 711.777 868.938 711.777C885.345 711.777 897.283 720.713 897.283 736.899V790H885.198V780.405H884.832C880.95 786.631 873.919 791.245 862.566 791.245ZM865.936 780.771C876.702 780.771 884.759 774.033 884.759 764.438V755.503H865.423C854.876 755.503 850.335 760.483 850.335 767.441C850.335 776.523 857.879 780.771 865.936 780.771ZM954.705 791.245C943.719 791.245 936.248 786.338 931.707 778.428H931.341V790H919.256V684.751H931.854V723.569H932.22C936.175 716.904 945.11 711.851 954.852 711.851C972.796 711.851 985.394 724.595 985.394 747.739V755.21C985.394 777.476 973.235 791.245 954.705 791.245ZM953.167 780.259C964.739 780.259 972.723 771.03 972.723 754.551V748.472C972.723 731.846 964.666 722.837 953.167 722.837C939.764 722.837 931.707 731.772 931.707 748.472V754.404C931.707 771.104 939.69 780.259 953.167 780.259ZM1005.24 790V684.751H1017.77V790H1005.24ZM1069.99 791.245C1049.92 791.245 1037.69 777.109 1037.69 755.21V746.567C1037.69 726.279 1049.19 711.777 1069.4 711.777C1089.54 711.777 1101.12 726.279 1101.12 747.446V754.624H1050.29V756.016C1050.29 770.664 1057.76 780.698 1070.28 780.698C1079.22 780.698 1085.08 776.23 1087.57 769.053H1100.09C1097.16 781.797 1086.98 791.245 1069.99 791.245ZM1050.29 744.443H1088.52V744.224C1088.52 731.992 1080.97 722.324 1069.48 722.324C1057.76 722.324 1050.29 732.065 1050.29 744.224V744.443ZM1149.16 694.492C1149.16 689.951 1152.75 686.436 1157.22 686.436C1161.69 686.436 1165.35 689.951 1165.35 694.492C1165.35 698.96 1161.69 702.476 1157.22 702.476C1152.75 702.476 1149.16 698.96 1149.16 694.492ZM1150.92 790V713.022H1163.52V790H1150.92ZM1186.81 790V713.022H1199.33V723.203H1199.7C1202.56 718.296 1209.66 711.777 1222.19 711.777C1238.01 711.777 1249.8 721.885 1249.8 740.635V790H1237.2V742.759C1237.2 729.795 1229.58 723.203 1218.38 723.203C1205.12 723.203 1199.41 732.578 1199.41 743.125V790H1186.81ZM1275.73 713.022V693.833H1288.25V713.022H1303.48V723.569H1288.25V768.613C1288.25 777.842 1291.33 780.186 1300.77 780.186C1302.02 780.186 1302.97 780.186 1304 780.039V790.146C1302.9 790.366 1300.26 790.659 1297.62 790.659C1279.39 790.659 1275.65 783.628 1275.65 768.467V723.569H1265.33V713.022H1275.73ZM1350.51 791.245C1330.44 791.245 1318.21 777.109 1318.21 755.21V746.567C1318.21 726.279 1329.71 711.777 1349.92 711.777C1370.06 711.777 1381.63 726.279 1381.63 747.446V754.624H1330.8V756.016C1330.8 770.664 1338.27 780.698 1350.8 780.698C1359.73 780.698 1365.59 776.23 1368.08 769.053H1380.61C1377.68 781.797 1367.5 791.245 1350.51 791.245ZM1330.8 744.443H1369.04V744.224C1369.04 731.992 1361.49 722.324 1349.99 722.324C1338.27 722.324 1330.8 732.065 1330.8 744.224V744.443ZM1400.68 790V713.022H1413.27V722.471H1413.64C1415.91 717.856 1421.7 711.851 1432.61 711.851C1434.22 711.851 1435.83 711.997 1437.37 712.217V723.716C1436.05 723.496 1433.56 723.423 1431.22 723.423C1417.6 723.423 1413.35 731.919 1413.35 742.319V790H1400.68ZM1461.32 790V723.569H1450.92V713.022H1461.32V705.332C1461.32 690.61 1468.72 683.799 1484.54 683.799C1487.1 683.799 1488.86 684.019 1490.18 684.238V694.565C1489.08 694.419 1488.13 694.272 1486.22 694.272C1477.87 694.272 1473.85 696.982 1473.85 706.357V713.022H1489.01V723.569H1473.92V790H1461.32ZM1526.73 791.245C1511.86 791.245 1501.6 782.017 1501.6 767.881C1501.6 754.404 1510.98 745.908 1528.63 745.835H1548.92V737.998C1548.92 727.891 1543.06 722.324 1532.66 722.324C1522.77 722.324 1517.13 727.378 1516.4 735.068H1504.53C1505.34 721.592 1514.5 711.777 1533.1 711.777C1549.5 711.777 1561.44 720.713 1561.44 736.899V790H1549.36V780.405H1548.99C1545.11 786.631 1538.08 791.245 1526.73 791.245ZM1530.1 780.771C1540.86 780.771 1548.92 774.033 1548.92 764.438V755.503H1529.58C1519.04 755.503 1514.5 760.483 1514.5 767.441C1514.5 776.523 1522.04 780.771 1530.1 780.771ZM1580.12 754.99V747.373C1580.12 726.646 1591.99 711.777 1612.05 711.777C1629.85 711.777 1640.69 723.569 1641.35 735.361H1628.97C1627.29 728.843 1621.21 722.91 1612.86 722.91C1600.12 722.91 1592.72 732.358 1592.72 747.886V755.063C1592.72 770.151 1600.63 780.112 1612.93 780.112C1622.53 780.112 1628.17 774.985 1629.56 768.833H1641.94C1639.37 782.017 1629.71 791.245 1612.05 791.245C1591.62 791.245 1580.12 775.498 1580.12 754.99ZM1688.74 791.245C1668.67 791.245 1656.44 777.109 1656.44 755.21V746.567C1656.44 726.279 1667.94 711.777 1688.15 711.777C1708.29 711.777 1719.87 726.279 1719.87 747.446V754.624H1669.04V756.016C1669.04 770.664 1676.51 780.698 1689.03 780.698C1697.97 780.698 1703.83 776.23 1706.32 769.053H1718.84C1715.91 781.797 1705.73 791.245 1688.74 791.245ZM1669.04 744.443H1707.27V744.224C1707.27 731.992 1699.72 722.324 1688.23 722.324C1676.51 722.324 1669.04 732.065 1669.04 744.224V744.443ZM1735.76 735.068C1735.76 718.809 1749.46 711.777 1764.25 711.777C1782.34 711.777 1791.64 722.104 1791.64 734.849H1779.92C1779.49 728.989 1775.82 722.104 1763.81 722.104C1754.66 722.104 1748.06 726.133 1748.06 733.75C1748.06 742.393 1758.25 744.224 1767.03 745.835C1781.46 748.398 1793.62 752.28 1793.62 767.295C1793.62 782.603 1781.24 791.245 1763.15 791.245C1746.23 791.245 1734.44 783.115 1734.44 769.272H1746.75C1747.84 776.304 1753.85 780.918 1764.1 780.918C1775.9 780.918 1781.24 775.352 1781.24 768.833C1781.24 760.117 1772.67 758.433 1761.91 756.309C1747.55 753.379 1735.76 748.984 1735.76 735.068ZM1844.01 750.376C1844.01 745.615 1847.89 741.733 1852.58 741.733C1857.34 741.733 1861.22 745.615 1861.22 750.376C1861.22 755.063 1857.34 758.945 1852.58 758.945C1847.89 758.945 1844.01 755.063 1844.01 750.376ZM1920.84 790V723.569H1910.44V713.022H1920.84V705.332C1920.84 690.61 1928.24 683.799 1944.06 683.799C1946.62 683.799 1948.38 684.019 1949.7 684.238V694.565C1948.6 694.419 1947.65 694.272 1945.75 694.272C1937.4 694.272 1933.37 696.982 1933.37 706.357V713.022H1948.53V723.569H1933.44V790H1920.84ZM1968.23 790V684.751H1980.75V790H1968.23ZM2032.98 791.245C2012.91 791.245 2000.68 777.109 2000.68 755.21V746.567C2000.68 726.279 2012.18 711.777 2032.39 711.777C2052.53 711.777 2064.1 726.279 2064.1 747.446V754.624H2013.27V756.016C2013.27 770.664 2020.75 780.698 2033.27 780.698C2042.21 780.698 2048.06 776.23 2050.55 769.053H2063.08C2060.15 781.797 2049.97 791.245 2032.98 791.245ZM2013.27 744.443H2051.51V744.224C2051.51 731.992 2043.96 722.324 2032.46 722.324C2020.75 722.324 2013.27 732.065 2013.27 744.224V744.443ZM2127.24 790L2107.61 760.923H2107.54L2088.05 790H2073.77L2100.21 751.475L2074.43 713.022H2089.52L2108.34 742.246H2108.42L2127.24 713.022H2141.67L2115.74 751.475L2142.25 790H2127.24ZM2154.49 694.492C2154.49 689.951 2158.07 686.436 2162.54 686.436C2167.01 686.436 2170.67 689.951 2170.67 694.492C2170.67 698.96 2167.01 702.476 2162.54 702.476C2158.07 702.476 2154.49 698.96 2154.49 694.492ZM2156.24 790V713.022H2168.84V790H2156.24ZM2227.8 791.245C2216.81 791.245 2209.34 786.338 2204.8 778.428H2204.44V790H2192.35V684.751H2204.95V723.569H2205.32C2209.27 716.904 2218.21 711.851 2227.95 711.851C2245.89 711.851 2258.49 724.595 2258.49 747.739V755.21C2258.49 777.476 2246.33 791.245 2227.8 791.245ZM2226.26 780.259C2237.83 780.259 2245.82 771.03 2245.82 754.551V748.472C2245.82 731.846 2237.76 722.837 2226.26 722.837C2212.86 722.837 2204.8 731.772 2204.8 748.472V754.404C2204.8 771.104 2212.79 780.259 2226.26 780.259ZM2278.34 790V684.751H2290.86V790H2278.34ZM2343.08 791.245C2323.02 791.245 2310.78 777.109 2310.78 755.21V746.567C2310.78 726.279 2322.28 711.777 2342.5 711.777C2362.64 711.777 2374.21 726.279 2374.21 747.446V754.624H2323.38V756.016C2323.38 770.664 2330.85 780.698 2343.38 780.698C2352.31 780.698 2358.17 776.23 2360.66 769.053H2373.19C2370.26 781.797 2360.08 791.245 2343.08 791.245ZM2323.38 744.443H2361.61V744.224C2361.61 731.992 2354.07 722.324 2342.57 722.324C2330.85 722.324 2323.38 732.065 2323.38 744.224V744.443ZM2444.01 791.245C2429.14 791.245 2418.89 782.017 2418.89 767.881C2418.89 754.404 2428.26 745.908 2445.92 745.835H2466.2V737.998C2466.2 727.891 2460.34 722.324 2449.94 722.324C2440.06 722.324 2434.42 727.378 2433.68 735.068H2421.82C2422.62 721.592 2431.78 711.777 2450.38 711.777C2466.79 711.777 2478.73 720.713 2478.73 736.899V790H2466.64V780.405H2466.28C2462.4 786.631 2455.36 791.245 2444.01 791.245ZM2447.38 780.771C2458.15 780.771 2466.2 774.033 2466.2 764.438V755.503H2446.87C2436.32 755.503 2431.78 760.483 2431.78 767.441C2431.78 776.523 2439.32 780.771 2447.38 780.771ZM2497.41 754.99V747.373C2497.41 726.646 2509.27 711.777 2529.34 711.777C2547.14 711.777 2557.98 723.569 2558.64 735.361H2546.26C2544.57 728.843 2538.49 722.91 2530.14 722.91C2517.4 722.91 2510 732.358 2510 747.886V755.063C2510 770.151 2517.91 780.112 2530.22 780.112C2539.81 780.112 2545.45 774.985 2546.84 768.833H2559.22C2556.66 782.017 2546.99 791.245 2529.34 791.245C2508.9 791.245 2497.41 775.498 2497.41 754.99ZM2573.72 754.99V747.373C2573.72 726.646 2585.59 711.777 2605.66 711.777C2623.46 711.777 2634.29 723.569 2634.95 735.361H2622.58C2620.89 728.843 2614.81 722.91 2606.46 722.91C2593.72 722.91 2586.32 732.358 2586.32 747.886V755.063C2586.32 770.151 2594.23 780.112 2606.54 780.112C2616.13 780.112 2621.77 774.985 2623.16 768.833H2635.54C2632.98 782.017 2623.31 791.245 2605.66 791.245C2585.22 791.245 2573.72 775.498 2573.72 754.99ZM2682.34 791.245C2662.27 791.245 2650.04 777.109 2650.04 755.21V746.567C2650.04 726.279 2661.54 711.777 2681.76 711.777C2701.9 711.777 2713.47 726.279 2713.47 747.446V754.624H2662.64V756.016C2662.64 770.664 2670.11 780.698 2682.63 780.698C2691.57 780.698 2697.43 776.23 2699.92 769.053H2712.44C2709.51 781.797 2699.33 791.245 2682.34 791.245ZM2662.64 744.443H2700.87V744.224C2700.87 731.992 2693.33 722.324 2681.83 722.324C2670.11 722.324 2662.64 732.065 2662.64 744.224V744.443ZM2729.36 735.068C2729.36 718.809 2743.06 711.777 2757.85 711.777C2775.95 711.777 2785.25 722.104 2785.25 734.849H2773.53C2773.09 728.989 2769.43 722.104 2757.42 722.104C2748.26 722.104 2741.67 726.133 2741.67 733.75C2741.67 742.393 2751.85 744.224 2760.64 745.835C2775.07 748.398 2787.22 752.28 2787.22 767.295C2787.22 782.603 2774.85 791.245 2756.76 791.245C2739.84 791.245 2728.04 783.115 2728.04 769.272H2740.35C2741.45 776.304 2747.45 780.918 2757.71 780.918C2769.5 780.918 2774.85 775.352 2774.85 768.833C2774.85 760.117 2766.28 758.433 2755.51 756.309C2741.16 753.379 2729.36 748.984 2729.36 735.068ZM2802.02 735.068C2802.02 718.809 2815.72 711.777 2830.51 711.777C2848.6 711.777 2857.9 722.104 2857.9 734.849H2846.18C2845.75 728.989 2842.08 722.104 2830.07 722.104C2820.92 722.104 2814.32 726.133 2814.32 733.75C2814.32 742.393 2824.5 744.224 2833.29 745.835C2847.72 748.398 2859.88 752.28 2859.88 767.295C2859.88 782.603 2847.5 791.245 2829.41 791.245C2812.49 791.245 2800.7 783.115 2800.7 769.272H2813.01C2814.1 776.304 2820.11 780.918 2830.36 780.918C2842.16 780.918 2847.5 775.352 2847.5 768.833C2847.5 760.117 2838.93 758.433 2828.17 756.309C2813.81 753.379 2802.02 748.984 2802.02 735.068Z" fill="white"/>
<path d="M565.451 215.258C637.229 215.258 675.314 267.26 675.314 335.863V358.812C675.314 428.393 637.473 480.15 565.451 480.15C493.43 480.15 455.1 428.393 455.1 358.812V335.863C455.1 267.26 493.674 215.258 565.451 215.258ZM565.451 251.146C521.262 251.146 497.092 284.838 497.092 337.328V357.348C497.092 409.594 521.262 443.773 565.451 443.773C609.396 443.773 633.322 409.838 633.322 357.348V337.328C633.322 284.838 609.396 251.146 565.451 251.146ZM856.467 480.15C823.752 480.15 798.605 464.525 784.201 441.82H782.98V561.205H740.988V219.408H781.271V256.273H782.492C797.385 232.104 823.752 215.502 858.176 215.502C916.037 215.502 958.762 259.936 958.762 335.863V359.545C958.762 434.496 916.77 480.15 856.467 480.15ZM852.316 443.529C890.646 443.529 916.525 412.768 916.525 356.371V337.328C916.525 283.373 892.6 251.635 851.096 251.635C808.371 251.635 782.248 286.059 782.248 337.084V356.371C782.248 408.861 808.615 443.529 852.316 443.529ZM1120.87 480.15C1053.98 480.15 1013.21 433.031 1013.21 360.033V331.225C1013.21 263.598 1051.54 215.258 1118.92 215.258C1186.06 215.258 1224.63 263.598 1224.63 334.154V358.08H1055.2V362.719C1055.2 411.547 1080.1 444.994 1121.85 444.994C1151.63 444.994 1171.16 430.102 1179.46 406.176H1221.21C1211.45 448.656 1177.51 480.15 1120.87 480.15ZM1055.2 324.145H1182.64V323.412C1182.64 282.641 1157.49 250.414 1119.16 250.414C1080.1 250.414 1055.2 282.885 1055.2 323.412V324.145ZM1288.11 476V219.408H1329.86V253.344H1331.08C1340.6 236.986 1364.28 215.258 1406.03 215.258C1458.76 215.258 1498.07 248.949 1498.07 311.449V476H1456.08V318.529C1456.08 275.316 1430.69 253.344 1393.33 253.344C1349.14 253.344 1330.1 284.594 1330.1 319.75V476H1288.11ZM1687.77 480.15C1651.14 480.15 1626.24 463.793 1611.11 437.426H1609.88V476H1569.6V125.17H1611.59V254.564H1612.81C1626 232.348 1655.78 215.502 1688.25 215.502C1748.07 215.502 1790.06 257.982 1790.06 335.131V360.033C1790.06 434.252 1749.53 480.15 1687.77 480.15ZM1682.64 443.529C1721.21 443.529 1747.82 412.768 1747.82 357.836V337.572C1747.82 282.152 1720.97 252.123 1682.64 252.123C1637.96 252.123 1611.11 281.908 1611.11 337.572V357.348C1611.11 413.012 1637.72 443.529 1682.64 443.529ZM1851.1 157.641C1851.1 142.504 1863.06 130.785 1877.95 130.785C1892.84 130.785 1905.05 142.504 1905.05 157.641C1905.05 172.533 1892.84 184.252 1877.95 184.252C1863.06 184.252 1851.1 172.533 1851.1 157.641ZM1856.96 476V219.408H1898.95V476H1856.96ZM1976.58 476V219.408H2018.33V253.344H2019.55C2029.07 236.986 2052.76 215.258 2094.5 215.258C2147.24 215.258 2186.54 248.949 2186.54 311.449V476H2144.55V318.529C2144.55 275.316 2119.16 253.344 2081.81 253.344C2037.62 253.344 2018.58 284.594 2018.58 319.75V476H1976.58ZM2349.63 215.502C2383.57 215.502 2410.42 232.348 2423.36 255.053H2424.58V125.17H2466.57V476H2426.29V437.426H2425.31C2410.91 463.793 2384.05 479.906 2349.63 479.906C2282.74 479.906 2247.09 430.834 2247.09 359.301V336.107C2247.09 266.283 2284.93 215.502 2349.63 215.502ZM2355.49 252.123C2317.4 252.123 2289.33 280.443 2289.33 337.572V357.836C2289.33 414.965 2317.4 443.285 2356.22 443.285C2399.19 443.285 2425.31 412.523 2425.31 358.08V337.572C2425.31 285.814 2398.7 252.123 2355.49 252.123ZM2538.6 157.641C2538.6 142.504 2550.56 130.785 2565.45 130.785C2580.34 130.785 2592.55 142.504 2592.55 157.641C2592.55 172.533 2580.34 184.252 2565.45 184.252C2550.56 184.252 2538.6 172.533 2538.6 157.641ZM2544.46 476V219.408H2586.45V476H2544.46ZM2664.08 476V219.408H2705.83V253.344H2707.05C2716.57 236.986 2740.26 215.258 2782 215.258C2834.74 215.258 2874.04 248.949 2874.04 311.449V476H2832.05V318.529C2832.05 275.316 2806.66 253.344 2769.31 253.344C2725.12 253.344 2706.08 284.594 2706.08 319.75V476H2664.08ZM3044.94 534.838C3085.47 534.838 3111.84 511.156 3111.84 470.873V433.031H3110.62C3100.36 455.248 3072.29 473.559 3037.38 473.559C2977.56 473.559 2934.84 431.566 2934.84 354.662V333.422C2934.84 257.982 2977.07 215.502 3037.38 215.502C3072.29 215.502 3100.12 233.812 3112.08 255.541H3113.3V219.408H3153.83V471.361C3153.83 537.035 3102.8 569.994 3044.7 569.994C2979.51 569.994 2946.31 537.768 2940.45 495.043H2983.42C2988.06 515.795 3009.79 534.838 3044.94 534.838ZM3045.43 251.635C3002.22 251.635 2976.83 282.396 2976.83 336.596V352.465C2976.83 405.688 3002.22 437.67 3045.43 437.67C3087.42 437.67 3111.84 405.443 3111.84 352.465V336.596C3111.84 284.594 3085.96 251.635 3045.43 251.635ZM3219.02 292.895C3219.02 238.695 3264.67 215.258 3313.99 215.258C3374.29 215.258 3405.29 249.682 3405.29 292.162H3366.23C3364.77 272.631 3352.56 249.682 3312.52 249.682C3282 249.682 3260.03 263.109 3260.03 288.5C3260.03 317.309 3293.97 323.412 3323.26 328.783C3371.36 337.328 3411.89 350.268 3411.89 400.316C3411.89 451.342 3370.63 480.15 3310.32 480.15C3253.93 480.15 3214.62 453.051 3214.62 406.908H3255.64C3259.3 430.346 3279.32 445.727 3313.5 445.727C3352.8 445.727 3370.63 427.172 3370.63 405.443C3370.63 376.391 3342.06 370.775 3306.17 363.695C3258.32 353.93 3219.02 339.281 3219.02 292.895Z" fill="white"/>
<path d="M267.553 496.978C273.314 506.956 269.895 519.714 259.917 525.475L202.421 558.669C195.965 562.399 188.01 562.395 181.555 558.669L124.101 525.477C114.127 519.715 110.71 506.958 116.469 496.983L155.992 428.527C158.485 424.208 163.765 422.452 168.557 423.832C175.977 425.969 183.817 427.114 191.924 427.114C200.08 427.114 207.965 425.955 215.424 423.794C220.221 422.404 225.51 424.158 228.007 428.483L267.553 496.978Z" fill="white"/>
<path d="M363.139 354.564C374.66 354.564 384 363.904 384 375.425V441.816C384 449.271 380.023 456.16 373.566 459.885L316.094 493.047C312.664 495.026 308.906 495.92 305.217 495.837C298.174 495.678 291.381 491.955 287.601 485.408L248.039 416.884C245.544 412.563 246.665 407.108 250.266 403.654C261.577 392.801 269.868 378.823 273.749 363.108C274.945 358.263 279.108 354.564 284.098 354.564L363.139 354.564Z" fill="white"/>
<path d="M99.748 354.564C104.738 354.564 108.901 358.263 110.097 363.108C110.815 366.015 111.684 368.863 112.694 371.642C117.111 383.784 124.371 394.823 133.683 403.745C137.291 407.202 138.419 412.665 135.92 416.992L96.4235 485.403C92.4632 492.263 85.1951 496.023 77.7973 495.831C74.4344 495.743 71.0449 494.839 67.9269 493.039L10.4307 459.844C3.97458 456.116 -0.00183897 449.227 6.38029e-07 441.772L0.016706 375.42C0.0196867 363.9 9.35877 354.564 20.878 354.564H99.748Z" fill="white"/>
<path d="M191.923 278.999C227.179 278.999 255.759 307.579 255.759 342.835C255.759 378.09 227.179 406.671 191.923 406.671C156.668 406.671 128.087 378.09 128.087 342.835C128.087 307.579 156.668 278.999 191.923 278.999Z" fill="white"/>
<path d="M67.9269 192.942C77.9045 187.182 90.6628 190.6 96.4235 200.578L135.804 268.787C138.299 273.108 137.178 278.562 133.578 282.017C126.959 288.369 121.374 295.79 117.102 304.004C114.135 309.709 111.802 315.796 110.194 322.172C110.139 322.393 110.084 322.614 110.03 322.836C108.847 327.699 104.677 331.418 99.6727 331.418H20.878C9.35884 331.417 0.0197357 322.081 0.016706 310.562L6.51045e-07 244.209C-0.00185763 236.754 3.97454 229.865 10.4307 226.138L67.9269 192.942Z" fill="white"/>
<path d="M306.222 190.146C309.584 190.233 312.973 191.136 316.091 192.935L373.563 226.096C380.02 229.822 383.998 236.71 383.998 244.165V310.556C383.998 322.077 374.658 331.417 363.136 331.417H279.63C277.226 331.417 275.207 329.637 274.767 327.274C271.563 310.111 262.866 294.202 250.359 282.119C246.775 278.657 245.661 273.21 248.152 268.895L287.598 200.573C291.558 193.714 298.825 189.955 306.222 190.146Z" fill="white"/>
<path d="M181.555 127.313C188.01 123.584 195.965 123.583 202.421 127.31L259.917 160.506C269.895 166.267 273.314 179.025 267.553 189.003L228.162 257.23C225.662 261.561 220.361 263.314 215.56 261.914C212.549 261.036 209.488 260.327 206.397 259.792C201.62 258.965 196.772 258.555 191.924 258.555C183.768 258.555 175.881 259.713 168.421 261.875C163.625 263.265 158.335 261.511 155.838 257.186L116.469 188.998C110.71 179.022 114.127 166.266 124.101 160.504L181.555 127.313Z" fill="white"/>
</svg>
